<svg width="1390.551" height="1035" viewBox="0 0 1390.55 1035" fill="none" xmlns="http://www.w3.org/2000/svg"><defs><linearGradient x1="-456.362" y1="323.138" x2="771.464" y2="969.415" id="b" gradientUnits="userSpaceOnUse"><stop stop-color="#33D35E"/><stop offset="1" stop-color="#2AB6D9"/></linearGradient><filter id="a" x="0" y="232" width="1214.567" height="803" filterUnits="userSpaceOnUse" color-interpolation-filters="sRGB"><feFlood flood-opacity="0" result="BackgroundImageFix"/><feColorMatrix in="SourceAlpha" values="0 0 0 0 0 0 0 0 0 0 0 0 0 0 0 0 0 0 127 0" result="hardAlpha"/><feOffset dy="2"/><feGaussianBlur stdDeviation="25.667"/><feComposite in2="hardAlpha" operator="out" k2="-1" k3="1"/><feColorMatrix values="0 0 0 0 0 0 0 0 0 0 0 0 0 0 0 0 0 0 0.024 0"/><feBlend in2="BackgroundImageFix" result="effect_dropShadow_1"/><feBlend in="SourceGraphic" in2="effect_dropShadow_1" result="shape"/></filter></defs><g filter="url(#a)"><path d="M117.75 503.39c-36.24 0-54.38 43.82-28.76 69.44l134.29 134.28a99.978 99.978 0 0 0 70.7 29.28h70.7c26.52 0 51.95 10.54 70.7 29.29l161.04 161.03A100.028 100.028 0 0 0 667.13 956h388.86c72.53 0 108.86-87.7 57.57-138.99l-86.4-86.38c-19.41-19.41-5.66-52.6 21.78-52.6 27.46 0 41.21-33.19 21.8-52.6L875.4 430.11a99.986 99.986 0 0 0-70.71-29.29H570.25a100.01 100.01 0 0 1-70.71-29.29l-35.25-35.25A100.019 100.019 0 0 0 393.58 307H158.43c-51.25 0-76.92 61.96-40.68 98.19l28.77 28.76c25.62 25.63 7.47 69.44-28.77 69.44Z" fill="#2D314D" fill-rule="evenodd"/><path d="M223.28 707.11a99.978 99.978 0 0 0 70.7 29.28h70.7c26.52 0 51.95 10.54 70.7 29.29l161.04 161.03A100.028 100.028 0 0 0 667.13 956h343.99c89.09 0 133.69-107.72 70.69-170.72l-54.65-54.65c-19.41-19.41-5.66-52.6 21.78-52.6 27.46 0 41.21-33.19 21.8-52.6L875.4 430.11a99.986 99.986 0 0 0-70.71-29.29H570.25a100.01 100.01 0 0 1-70.71-29.29l-35.25-35.25A100.019 100.019 0 0 0 393.58 307H199.1c-66.26 0-99.44 80.1-52.59 126.95 25.63 25.63 7.48 69.44-28.76 69.44s-54.38 43.82-28.76 69.44l134.29 134.28Z"/></g><path d="M255.75 196.39c-36.24 0-54.38 43.82-28.76 69.44l134.29 134.28a99.978 99.978 0 0 0 70.7 29.28h70.7c26.52 0 51.95 10.54 70.7 29.29l161.04 161.03A100.028 100.028 0 0 0 805.13 649h388.86c72.53 0 108.86-87.7 57.57-138.99l-86.4-86.38c-19.41-19.41-5.66-52.6 21.78-52.6 27.46 0 41.21-33.19 21.8-52.6L1013.4 123.11a99.986 99.986 0 0 0-70.71-29.29H708.25a100.01 100.01 0 0 1-70.71-29.29l-35.25-35.25A100.019 100.019 0 0 0 531.58 0H296.43c-51.25 0-76.92 61.96-40.68 98.19l28.76 28.76c25.63 25.63 7.48 69.44-28.76 69.44Z" fill="url(#b)" fill-rule="evenodd"/><path d="M361.28 400.11a99.978 99.978 0 0 0 70.7 29.28h70.7c26.52 0 51.95 10.54 70.7 29.29l161.04 161.03A100.028 100.028 0 0 0 805.13 649h343.99c89.09 0 133.69-107.72 70.69-170.72l-54.65-54.65c-19.41-19.41-5.66-52.6 21.78-52.6 27.46 0 41.21-33.19 21.8-52.6L1013.4 123.11a99.986 99.986 0 0 0-70.71-29.29H708.25a100.01 100.01 0 0 1-70.71-29.29l-35.25-35.25A100.019 100.019 0 0 0 531.58 0H337.1c-66.26 0-99.44 80.1-52.59 126.95 25.63 25.63 7.48 69.44-28.76 69.44s-54.38 43.82-28.76 69.44l134.29 134.28Z"/></svg>