<svg width="20" height="20" fill="none" xmlns="http://www.w3.org/2000/svg"><path d="M10 0C4.47 0 0 4.47 0 10c0 4.23 2.63 7.85 6.35 9.31-.09-.79-.17-2.01.04-2.87.18-.78 1.17-4.97 1.17-4.97s-.3-.6-.3-1.49c0-1.39.8-2.42 1.81-2.42.85 0 1.26.64 1.26 1.4 0 .86-.54 2.14-.82 3.33-.24 1 .49 1.81 1.48 1.81 1.77 0 3.14-1.87 3.14-4.58 0-2.39-1.72-4.07-4.18-4.07-2.84 0-4.51 2.14-4.51 4.34 0 .86.33 1.78.74 2.28.08.1.1.19.07.29l-.28 1.13c-.04.19-.14.23-.33.14-1.25-.58-2.03-2.41-2.03-3.88 0-3.15 2.29-6.05 6.61-6.05 3.46 0 6.16 2.48 6.16 5.78 0 3.45-2.17 6.22-5.19 6.22-1.01 0-1.96-.53-2.29-1.15l-.62 2.38c-.23.87-.84 1.96-1.25 2.62.94.29 1.93.45 2.97.45 5.52 0 10-4.48 10-10 0-5.53-4.48-10-10-10Z" fill="#FFF"/></svg>