<svg width="20" height="16.253" fill="none" xmlns="http://www.w3.org/2000/svg"><path d="M20 1.92c-.74.33-1.53.55-2.36.64.85-.5 1.5-1.31 1.8-2.26-.79.47-1.67.81-2.6.99-.75-.8-1.82-1.29-3-1.29-2.65 0-4.59 2.47-4 5.03-3.4-.17-6.43-1.8-8.45-4.28a4.091 4.091 0 0 0 1.27 5.47c-.68-.02-1.31-.2-1.86-.51-.05 1.9 1.32 3.68 3.29 4.08-.58.15-1.21.19-1.85.07a4.107 4.107 0 0 0 3.83 2.85A8.293 8.293 0 0 1 0 14.41c1.81 1.16 3.97 1.84 6.28 1.84 7.62 0 11.93-6.44 11.67-12.21.8-.58 1.5-1.3 2.05-2.12Z" fill="#FFF"/></svg>